<?xml version="1.0" encoding="iso-8859-1"?>
<!-- Generator: Adobe Illustrator 19.0.0, SVG Export Plug-In . SVG Version: 6.00 Build 0)  -->
<svg version="1.1" id="Layer_1" xmlns="http://www.w3.org/2000/svg" xmlns:xlink="http://www.w3.org/1999/xlink" x="0px" y="0px"
	 viewBox="0 0 512 512" style="enable-background:new 0 0 512 512;" xml:space="preserve">
<circle style="fill:#8CC0C5;" cx="256" cy="256" r="25.6"/>
<g>
	<path style="fill:#573A32;" d="M294.4,256c0-21.205-17.195-38.4-38.4-38.4c-21.205,0-38.4,17.195-38.4,38.4s17.195,38.4,38.4,38.4
		C277.205,294.4,294.4,277.205,294.4,256z M243.2,256c0-7.057,5.743-12.8,12.8-12.8c7.057,0,12.8,5.743,12.8,12.8
		c0,7.057-5.743,12.8-12.8,12.8C248.943,268.8,243.2,263.057,243.2,256z"/>
	<path style="fill:#573A32;" d="M382.711,382.711C415.138,350.285,435.2,305.485,435.2,256s-20.062-94.285-52.489-126.711
		l-18.15,18.15c27.81,27.81,45.039,66.21,45.039,108.561s-17.229,80.751-45.039,108.561L382.711,382.711z"/>
	<path style="fill:#573A32;" d="M129.289,129.289C96.862,161.715,76.8,206.515,76.8,256s20.062,94.285,52.489,126.711l18.15-18.15
		C119.629,336.751,102.4,298.351,102.4,256s17.229-80.751,45.039-108.561L129.289,129.289z"/>
	<path style="fill:#573A32;" d="M328.405,328.405C346.94,309.879,358.4,284.279,358.4,256c0-28.279-11.46-53.879-29.995-72.405
		l-18.125,18.125C324.19,215.629,332.8,234.829,332.8,256s-8.61,40.371-22.519,54.281L328.405,328.405z"/>
	<path style="fill:#573A32;" d="M183.595,183.595C165.06,202.121,153.6,227.721,153.6,256c0,28.279,11.46,53.879,29.995,72.405
		l18.125-18.125C187.81,296.371,179.2,277.171,179.2,256s8.61-40.371,22.519-54.281L183.595,183.595z"/>
	<path style="fill:#573A32;" d="M418.842,93.158C460.561,134.878,486.4,192.478,486.4,256s-25.839,121.122-67.558,162.842
		l18.176,18.176C483.345,390.69,512,326.69,512,256s-28.655-134.69-74.982-181.018L418.842,93.158z"/>
	<path style="fill:#573A32;" d="M0,256c0,70.69,28.655,134.69,74.982,181.018l18.176-18.176C51.439,377.122,25.6,319.522,25.6,256
		S51.439,134.878,93.158,93.158L74.982,74.982C28.655,121.31,0,185.31,0,256z"/>
</g>
<g>
</g>
<g>
</g>
<g>
</g>
<g>
</g>
<g>
</g>
<g>
</g>
<g>
</g>
<g>
</g>
<g>
</g>
<g>
</g>
<g>
</g>
<g>
</g>
<g>
</g>
<g>
</g>
<g>
</g>
</svg>
